<svg xmlns="http://www.w3.org/2000/svg" viewBox="0 0 900 500">
  <!-- Background -->
  <rect width="900" height="500" fill="#f8f9fa" rx="10" ry="10"/>
  
  <!-- Title -->
  <text x="450" y="40" font-family="Arial" font-size="24" font-weight="bold" text-anchor="middle" fill="#333">Team Velocity Chart</text>
  
  <!-- Chart area -->
  <rect x="100" y="80" width="700" height="350" fill="white" stroke="#dee2e6" stroke-width="1"/>
  
  <!-- Y-axis -->
  <line x1="100" y1="80" x2="100" y2="430" stroke="#333" stroke-width="2"/>
  <!-- Y-axis ticks and labels -->
  <line x1="95" y1="80" x2="100" y2="80" stroke="#333" stroke-width="1"/>
  <text x="90" y="85" font-family="Arial" font-size="12" text-anchor="end" fill="#333">35</text>
  
  <line x1="95" y1="130" x2="100" y2="130" stroke="#333" stroke-width="1"/>
  <text x="90" y="135" font-family="Arial" font-size="12" text-anchor="end" fill="#333">30</text>
  
  <line x1="95" y1="180" x2="100" y2="180" stroke="#333" stroke-width="1"/>
  <text x="90" y="185" font-family="Arial" font-size="12" text-anchor="end" fill="#333">25</text>
  
  <line x1="95" y1="230" x2="100" y2="230" stroke="#333" stroke-width="1"/>
  <text x="90" y="235" font-family="Arial" font-size="12" text-anchor="end" fill="#333">20</text>
  
  <line x1="95" y1="280" x2="100" y2="280" stroke="#333" stroke-width="1"/>
  <text x="90" y="285" font-family="Arial" font-size="12" text-anchor="end" fill="#333">15</text>
  
  <line x1="95" y1="330" x2="100" y2="330" stroke="#333" stroke-width="1"/>
  <text x="90" y="335" font-family="Arial" font-size="12" text-anchor="end" fill="#333">10</text>
  
  <line x1="95" y1="380" x2="100" y2="380" stroke="#333" stroke-width="1"/>
  <text x="90" y="385" font-family="Arial" font-size="12" text-anchor="end" fill="#333">5</text>
  
  <line x1="95" y1="430" x2="100" y2="430" stroke="#333" stroke-width="1"/>
  <text x="90" y="435" font-family="Arial" font-size="12" text-anchor="end" fill="#333">0</text>
  
  <!-- X-axis -->
  <line x1="100" y1="430" x2="800" y2="430" stroke="#333" stroke-width="2"/>
  
  <!-- X-axis ticks and labels -->
  <line x1="135" y1="430" x2="135" y2="435" stroke="#333" stroke-width="1"/>
  <text x="135" y="450" font-family="Arial" font-size="12" text-anchor="middle" fill="#333">Sprint 1</text>
  
  <line x1="235" y1="430" x2="235" y2="435" stroke="#333" stroke-width="1"/>
  <text x="235" y="450" font-family="Arial" font-size="12" text-anchor="middle" fill="#333">Sprint 2</text>
  
  <line x1="335" y1="430" x2="335" y2="435" stroke="#333" stroke-width="1"/>
  <text x="335" y="450" font-family="Arial" font-size="12" text-anchor="middle" fill="#333">Sprint 3</text>
  
  <line x1="435" y1="430" x2="435" y2="435" stroke="#333" stroke-width="1"/>
  <text x="435" y="450" font-family="Arial" font-size="12" text-anchor="middle" fill="#333">Sprint 4</text>
  
  <line x1="535" y1="430" x2="535" y2="435" stroke="#333" stroke-width="1"/>
  <text x="535" y="450" font-family="Arial" font-size="12" text-anchor="middle" fill="#333">Sprint 5</text>
  
  <line x1="635" y1="430" x2="635" y2="435" stroke="#333" stroke-width="1"/>
  <text x="635" y="450" font-family="Arial" font-size="12" text-anchor="middle" fill="#333">Sprint 6</text>
  
  <line x1="735" y1="430" x2="735" y2="435" stroke="#333" stroke-width="1"/>
  <text x="735" y="450" font-family="Arial" font-size="12" text-anchor="middle" fill="#333">Sprint 7</text>
  
  <!-- Axis labels -->
  <text x="50" y="230" font-family="Arial" font-size="14" font-weight="bold" text-anchor="middle" fill="#333" transform="rotate(-90,50,230)">Story Points</text>
  <text x="450" y="475" font-family="Arial" font-size="14" font-weight="bold" text-anchor="middle" fill="#333">Sprint</text>
  
  <!-- Grid lines -->
  <!-- Horizontal grid lines -->
  <line x1="100" y1="130" x2="800" y2="130" stroke="#dee2e6" stroke-width="1" stroke-dasharray="5,5"/>
  <line x1="100" y1="180" x2="800" y2="180" stroke="#dee2e6" stroke-width="1" stroke-dasharray="5,5"/>
  <line x1="100" y1="230" x2="800" y2="230" stroke="#dee2e6" stroke-width="1" stroke-dasharray="5,5"/>
  <line x1="100" y1="280" x2="800" y2="280" stroke="#dee2e6" stroke-width="1" stroke-dasharray="5,5"/>
  <line x1="100" y1="330" x2="800" y2="330" stroke="#dee2e6" stroke-width="1" stroke-dasharray="5,5"/>
  <line x1="100" y1="380" x2="800" y2="380" stroke="#dee2e6" stroke-width="1" stroke-dasharray="5,5"/>
  
  <!-- Vertical grid lines -->
  <line x1="185" y1="80" x2="185" y2="430" stroke="#dee2e6" stroke-width="1" stroke-dasharray="5,5"/>
  <line x1="285" y1="80" x2="285" y2="430" stroke="#dee2e6" stroke-width="1" stroke-dasharray="5,5"/>
  <line x1="385" y1="80" x2="385" y2="430" stroke="#dee2e6" stroke-width="1" stroke-dasharray="5,5"/>
  <line x1="485" y1="80" x2="485" y2="430" stroke="#dee2e6" stroke-width="1" stroke-dasharray="5,5"/>
  <line x1="585" y1="80" x2="585" y2="430" stroke="#dee2e6" stroke-width="1" stroke-dasharray="5,5"/>
  <line x1="685" y1="80" x2="685" y2="430" stroke="#dee2e6" stroke-width="1" stroke-dasharray="5,5"/>
  <line x1="785" y1="80" x2="785" y2="430" stroke="#dee2e6" stroke-width="1" stroke-dasharray="5,5"/>
  
  <!-- Bars for Committed -->
  <rect x="115" y="180" width="40" height="250" fill="#007bff" opacity="0.6"/>
  <rect x="215" y="130" width="40" height="300" fill="#007bff" opacity="0.6"/>
  <rect x="315" y="180" width="40" height="250" fill="#007bff" opacity="0.6"/>
  <rect x="415" y="130" width="40" height="300" fill="#007bff" opacity="0.6"/>
  <rect x="515" y="130" width="40" height="300" fill="#007bff" opacity="0.6"/>
  <rect x="615" y="80" width="40" height="350" fill="#007bff" opacity="0.6"/>
  <rect x="715" y="130" width="40" height="300" fill="#007bff" opacity="0.6"/>
  
  <!-- Bars for Completed -->
  <rect x="155" y="230" width="40" height="200" fill="#28a745" opacity="0.6"/>
  <rect x="255" y="180" width="40" height="250" fill="#28a745" opacity="0.6"/>
  <rect x="355" y="180" width="40" height="250" fill="#28a745" opacity="0.6"/>
  <rect x="455" y="180" width="40" height="250" fill="#28a745" opacity="0.6"/>
  <rect x="555" y="130" width="40" height="300" fill="#28a745" opacity="0.6"/>
  <rect x="655" y="130" width="40" height="300" fill="#28a745" opacity="0.6"/>
  <rect x="755" y="130" width="40" height="300" fill="#28a745" opacity="0.6"/>
  
  <!-- Average velocity line -->
  <line x1="100" y1="167" x2="800" y2="167" stroke="#dc3545" stroke-width="2" stroke-dasharray="5,5"/>
  <text x="720" y="160" font-family="Arial" font-size="12" fill="#dc3545">Durchschnittliche Velocity: 26.4 SP</text>
  
  <!-- Legend -->
  <rect x="600" y="90" width="180" height="60" rx="5" ry="5" fill="white" stroke="#dee2e6" stroke-width="1"/>
  
  <rect x="620" y="105" width="15" height="15" fill="#007bff" opacity="0.6"/>
  <text x="645" y="117" font-family="Arial" font-size="12" text-anchor="start" fill="#333">Zugesagt</text>
  
  <rect x="620" y="130" width="15" height="15" fill="#28a745" opacity="0.6"/>
  <text x="645" y="142" font-family="Arial" font-size="12" text-anchor="start" fill="#333">Abgeschlossen</text>
</svg>